<svg width="1920" height="1080" viewBox="0 0 1920 1080" xmlns="http://www.w3.org/2000/svg">
  <defs>
    <radialGradient id="g1" cx="30%" cy="30%" r="55%">
      <stop offset="0%" stop-color="#4ad8ff" stop-opacity="0.68"/>
      <stop offset="50%" stop-color="#2257ff" stop-opacity="0.28"/>
      <stop offset="100%" stop-color="#050713" stop-opacity="0"/>
    </radialGradient>
    <radialGradient id="g2" cx="72%" cy="60%" r="45%">
      <stop offset="0%" stop-color="#7ce6ff" stop-opacity="0.52"/>
      <stop offset="48%" stop-color="#1f8ec9" stop-opacity="0.22"/>
      <stop offset="100%" stop-color="#050713" stop-opacity="0"/>
    </radialGradient>
    <radialGradient id="g3" cx="55%" cy="45%" r="60%">
      <stop offset="0%" stop-color="#88a8ff" stop-opacity="0.34"/>
      <stop offset="100%" stop-color="#050713" stop-opacity="0"/>
    </radialGradient>
    <filter id="blur18"><feGaussianBlur stdDeviation="18"/></filter>
    <filter id="blur42"><feGaussianBlur stdDeviation="42"/></filter>
  </defs>

  <rect width="1920" height="1080" fill="#030611"/>

  <ellipse cx="520" cy="360" rx="650" ry="360" fill="url(#g1)" filter="url(#blur42)"/>
  <ellipse cx="1360" cy="690" rx="580" ry="320" fill="url(#g2)" filter="url(#blur42)"/>
  <ellipse cx="980" cy="470" rx="800" ry="420" fill="url(#g3)" filter="url(#blur18)"/>

  <g fill="#dff9ff" opacity="0.62">
    <circle cx="243" cy="188" r="1.8"/>
    <circle cx="322" cy="614" r="1.4"/>
    <circle cx="411" cy="402" r="1.2"/>
    <circle cx="532" cy="221" r="1.9"/>
    <circle cx="640" cy="730" r="1.6"/>
    <circle cx="787" cy="547" r="1.5"/>
    <circle cx="903" cy="262" r="1.3"/>
    <circle cx="1011" cy="812" r="1.8"/>
    <circle cx="1132" cy="598" r="1.7"/>
    <circle cx="1240" cy="332" r="1.3"/>
    <circle cx="1385" cy="208" r="1.5"/>
    <circle cx="1513" cy="750" r="1.6"/>
    <circle cx="1672" cy="503" r="1.4"/>
    <circle cx="1764" cy="289" r="1.2"/>
  </g>
</svg>
