<svg width="1920" height="1080" viewBox="0 0 1920 1080" xmlns="http://www.w3.org/2000/svg">
  <defs>
    <radialGradient id="bg" cx="50%" cy="50%" r="70%">
      <stop offset="0%" stop-color="#091428"/>
      <stop offset="100%" stop-color="#04070f"/>
    </radialGradient>
  </defs>
  <rect width="1920" height="1080" fill="url(#bg)"/>
  <g fill="#ffffff" opacity="0.85">
    <circle cx="40" cy="80" r="1.2"/><circle cx="120" cy="240" r="1"/><circle cx="220" cy="160" r="1.4"/>
    <circle cx="340" cy="310" r="1.1"/><circle cx="460" cy="110" r="1.5"/><circle cx="580" cy="260" r="1"/>
    <circle cx="700" cy="160" r="1.3"/><circle cx="820" cy="340" r="1.2"/><circle cx="940" cy="90" r="1"/>
    <circle cx="1060" cy="260" r="1.4"/><circle cx="1180" cy="190" r="1.1"/><circle cx="1300" cy="320" r="1"/>
    <circle cx="1420" cy="140" r="1.3"/><circle cx="1540" cy="260" r="1.2"/><circle cx="1660" cy="110" r="1.1"/>
    <circle cx="1780" cy="300" r="1.4"/><circle cx="1880" cy="180" r="1.1"/>

    <circle cx="95" cy="560" r="1.3"/><circle cx="180" cy="720" r="1"/><circle cx="300" cy="610" r="1.5"/>
    <circle cx="420" cy="840" r="1.2"/><circle cx="510" cy="640" r="1.1"/><circle cx="640" cy="900" r="1.3"/>
    <circle cx="760" cy="690" r="1"/><circle cx="880" cy="920" r="1.4"/><circle cx="990" cy="740" r="1.1"/>
    <circle cx="1110" cy="860" r="1.2"/><circle cx="1250" cy="700" r="1.1"/><circle cx="1370" cy="930" r="1.4"/>
    <circle cx="1490" cy="670" r="1"/><circle cx="1610" cy="840" r="1.3"/><circle cx="1730" cy="620" r="1.2"/>
    <circle cx="1850" cy="900" r="1.1"/>
  </g>
</svg>
